#!OML:ASF F:\VICON\USERDATA\INSTALL\rory3\rory3.ASF
:FULLY-SPECIFIED
:DEGREES
217
root 0.402071 17.9346 13.72 -5.11434 -1.30438 -0.121563
lowerback 10.726 1.5611 -0.395494
upperback 1.35939 2.04772 0.426397
thorax -4.62257 1.0215 0.369431
lowerneck -15.6735 -3.33433 -1.30436
upperneck 20.2316 -4.58436 1.24872
head 8.98951 -2.11259 0.0784763
rclavicle -1.8869e-014 -8.94531e-015
rhumerus -26.3188 -19.6795 -78.8162
rradius 26.2876
rwrist 7.25551
rhand -18.6435 23.2055
rfingers 7.12502
rthumb 7.64924 -6.63614
lclavicle -1.8869e-014 -8.94531e-015
lhumerus -33.883 6.07493 81.8051
lradius 20.6341
lwrist 4.01584
lhand -30.1816 19.4329
lfingers 7.12502
lthumb -3.49288 49.3841
rfemur -13.4687 -5.42675 19.8654
rtibia 73.9911
rfoot 0.433762 -1.8015
rtoes 10.9623
lfemur -9.89292 -0.311935 -24.8185
ltibia 28.5039
lfoot -10.3399 -1.68742
ltoes 2.88662
218
root 0.413816 17.9254 13.8968 -5.20351 -0.860398 0.163697
lowerback 10.5832 1.40026 -0.698842
upperback 1.44234 1.79829 0.396796
thorax -4.46195 0.903134 0.550282
lowerneck -15.7167 -3.28614 -1.38945
upperneck 20.431 -4.51057 1.29423
head 9.06846 -2.07757 0.114611
rclavicle 9.13167e-016 -2.08724e-015
rhumerus -26.8172 -20.1972 -78.5528
rradius 26.2398
rwrist 7.69713
rhand -18.4542 23.7802
rfingers 7.12502
rthumb 7.83193 -6.05472
lclavicle 9.13167e-016 -2.08724e-015
lhumerus -33.621 5.14541 82.2662
lradius 21.4752
lwrist 5.23172
lhand -29.1753 21.1716
lfingers 7.12502
lthumb -2.52099 51.1364
rfemur -14.5538 -6.13152 19.4438
rtibia 74.4431
rfoot -1.69291 -1.62077
rtoes 11.5567
lfemur -9.26447 -0.249568 -25.3132
ltibia 28.4819
lfoot -10.5096 -1.56774
ltoes -0.777042
219
root 0.42288 17.9234 14.061 -5.32756 -0.539047 0.462021
lowerback 10.7309 1.26869 -1.02819
upperback 1.43638 1.58287 0.366357
thorax -4.55474 0.802203 0.73159
lowerneck -15.6253 -3.21849 -1.59199
upperneck 20.5956 -4.40029 1.42498
head 9.11519 -2.02685 0.206479
rclavicle 6.55679e-015 8.44835e-015
rhumerus -27.341 -20.7281 -78.2941
rradius 26.2125
rwrist 7.98236
rhand -18.2855 23.9747
rfingers 7.12502
rthumb 7.99481 -5.85407
lclavicle 6.55679e-015 8.44835e-015
lhumerus -33.3997 4.99096 82.181
lradius 21.5268
lwrist 5.1959
lhand -28.7271 19.7513
lfingers 7.12502
lthumb -2.08816 49.7209
rfemur -15.68 -6.65754 19.0802
rtibia 74.7153
rfoot -0.611139 -1.58559
rtoes 11.0727
lfemur -8.63117 -0.338056 -25.7754
ltibia 28.603
lfoot -10.8943 -1.36235
ltoes -1.51117
220
root 0.417358 17.9213 14.21 -5.37478 -0.442619 -0.0496486
lowerback 11.092 1.1784 -0.705889
upperback 1.34361 1.50904 0.576341
thorax -4.84844 0.762685 0.771627
lowerneck -15.3072 -3.25824 -1.52177
upperneck 20.4992 -4.42579 1.21048
head 9.01669 -2.06028 0.124968
rclavicle 7.24322e-015 6.06293e-015
rhumerus -27.8112 -20.9546 -78.122
rradius 26.0651
rwrist 7.71222
rhand -18.0022 22.5763
rfingers 7.12502
rthumb 8.26822 -7.24188
lclavicle 7.24322e-015 6.06293e-015
lhumerus -32.9376 4.63861 82.1416
lradius 21.2053
lwrist 5.38419
lhand -28.6672 17.4915
lfingers 7.12502
lthumb -2.03031 47.4616
rfemur -17.042 -6.74594 19.945
rtibia 74.8032
rfoot -1.09743 -1.86089
rtoes 11.9792
lfemur -8.14134 -0.362762 -25.1881
ltibia 28.8197
lfoot -11.5145 -1.28498
ltoes -1.35107
221
root 0.412355 17.9146 14.3748 -5.3625 -0.228039 -0.106705
lowerback 10.9292 1.15125 -0.812642
upperback 1.50538 1.4644 0.644841
thorax -4.59221 0.741913 0.914716
lowerneck -15.3158 -3.3498 -1.48006
upperneck 20.3555 -4.54231 1.13444
head 8.96743 -2.1208 0.0790721
rclavicle -9.14409e-015 4.96962e-015
rhumerus -27.9325 -21.5141 -77.9699
rradius 25.7874
rwrist 7.35939
rhand -17.6439 20.1504
rfingers 7.12502
rthumb 8.61396 -9.65392
lclavicle -9.14409e-015 4.96962e-015
lhumerus -32.1854 3.87074 82.3991
lradius 21.3735
lwrist 6.08926
lhand -28.9473 17.1307
lfingers 7.12502
lthumb -2.30077 47.098
rfemur -18.3333 -6.96078 20.2484
rtibia 74.7669
rfoot -2.25439 -1.96465
rtoes 11.4393
lfemur -7.68476 -0.42638 -25.1352
ltibia 29.134
lfoot -12.3769 -1.18519
ltoes -0.879074
222
root 0.42183 17.8993 14.5418 -5.29927 0.256779 0.494773
lowerback 10.6875 1.01687 -1.42816
upperback 1.61718 1.21011 0.503403
thorax -4.3447 0.623639 1.15626
lowerneck -15.3139 -3.31195 -1.48311
upperneck 20.2976 -4.49525 1.16799
head 8.94748 -2.09574 0.0972802
rclavicle -2.83889e-015 1.23246e-014
rhumerus -28.0496 -21.8225 -77.8973
rradius 25.6913
rwrist 6.94223
rhand -17.386 18.5216
rfingers 7.12502
rthumb 8.8629 -11.2723
lclavicle -2.83889e-015 1.23246e-014
lhumerus -31.5618 3.49365 82.4582
lradius 21.7014
lwrist 6.19463
lhand -28.6107 17.8289
lfingers 7.12502
lthumb -1.97575 47.7995
rfemur -19.5488 -7.51203 19.6097
rtibia 74.6069
rfoot -3.73329 -1.72699
rtoes 9.88992
lfemur -7.19578 -0.743446 -25.8943
ltibia 29.4755
lfoot -13.1707 -1.24796
ltoes 2.8541
